<svg width="954" height="261" viewBox="0 0 954 261" fill="none" xmlns="http://www.w3.org/2000/svg">
<g filter="url(#filter0_d_1164_141)">
<path d="M4 253V249.466L10.6686 246.286C13.9546 244.637 16.1775 242.517 17.3372 239.926C18.6903 237.099 19.3668 233.33 19.3668 228.619V24.3833C19.3668 19.672 18.7869 16.0207 17.6272 13.4294C16.6607 10.6026 14.3412 8.36472 10.6686 6.71574L4 3.53558V0.00206739H142.881L144.621 54.4182H141.721L129.254 21.2031C127.514 16.9629 125.678 13.5472 123.745 10.956C121.812 8.36471 118.913 7.06909 115.047 7.06909H62.8577V123.673H93.8812C97.7471 123.673 100.646 122.495 102.579 120.139C104.706 117.548 106.542 114.132 108.088 109.892L113.887 95.7583H116.786V159.361H113.887L108.088 144.52C106.349 140.28 104.512 136.982 102.579 134.627C100.646 132.035 97.7471 130.74 93.8812 130.74H62.8577V245.933H121.425C125.291 245.933 128.287 244.755 130.414 242.399C132.54 239.808 134.279 236.275 135.633 231.799L147.52 198.583H150.419V253H4Z" fill="url(#paint0_linear_1164_141)"/>
<path d="M203.533 253C194.061 253 187.478 253 178.834 253C170.19 253 165.424 253 157.432 253V198.583H160.332L170.19 218.018C174.442 227.441 179.081 234.508 184.107 239.219C189.326 243.695 195.898 245.933 203.823 245.933C213.101 245.933 220.542 243.459 226.148 238.513C231.947 233.33 234.846 226.498 234.846 218.018C234.846 210.244 232.817 203.884 228.757 198.937C224.698 193.99 217.16 189.514 206.142 185.509L193.965 180.916C182.174 176.675 172.896 170.08 166.131 161.128C159.365 152.176 155.983 141.223 155.983 128.266C155.983 112.719 161.008 99.5274 171.059 88.6913C181.111 77.8552 195.511 72.4371 214.26 72.4371C221.799 72.4371 228.854 73.4972 235.426 75.6173C242.191 77.5018 248.667 80.4464 254.852 84.451L253.112 122.613H250.213L240.065 100.705C236.393 92.9314 232.72 87.5134 229.047 84.451C225.568 81.1531 220.253 79.5041 213.101 79.5041C206.529 79.5041 200.343 81.742 194.545 86.2178C188.746 90.6936 185.846 97.0538 185.846 105.299C185.846 113.308 188.263 119.668 193.095 124.379C198.12 129.091 205.466 133.449 215.13 137.453L228.178 142.047C242.095 147.23 252.049 154.414 258.041 163.601C264.033 172.553 267.029 183.389 267.029 196.11C267.029 213.306 261.424 227.088 250.213 237.453C239.195 247.818 223.635 253 203.533 253Z" fill="url(#paint1_linear_1164_141)"/>
<path d="M261.534 253V249.466L265.593 248.053C269.266 246.875 271.779 244.873 273.132 242.046C274.678 239.219 275.548 235.45 275.741 230.739V114.839C275.741 109.656 275.065 105.888 273.712 103.532C272.359 100.941 269.749 99.174 265.883 98.2317L261.534 96.8183V93.2848L311.114 72.7905L314.013 76.324L316.333 100.352C322.711 92.5781 329.96 85.9822 338.078 80.5642C346.39 75.1461 354.991 72.4371 363.883 72.4371C373.161 72.4371 380.603 74.7928 386.208 79.5041C391.814 83.9799 396.066 91.0469 398.965 100.705C406.504 91.9892 414.622 85.1578 423.32 80.2108C432.212 75.0284 440.813 72.4371 449.125 72.4371C462.849 72.4371 472.9 76.4418 479.279 84.451C485.851 92.4603 489.137 105.063 489.137 122.259V231.092C489.137 240.279 492.616 246.051 499.574 248.406L502.764 249.466V253H435.788V249.466L438.687 248.406C442.36 246.993 444.873 244.873 446.226 242.046C447.772 239.219 448.545 235.45 448.545 230.739V117.312C448.545 107.419 447.095 100.705 444.196 97.1717C441.297 93.4026 436.658 91.5181 430.279 91.5181C425.253 91.5181 420.324 92.9315 415.492 95.7583C410.853 98.3495 405.924 102.354 400.705 107.772C401.672 111.541 402.251 115.663 402.445 120.139C402.831 124.615 403.025 129.326 403.025 134.273V231.092C403.218 240.279 406.697 246.051 413.462 248.406L416.072 249.466V253H348.806V249.466L352.865 248.053C356.538 246.64 359.05 244.637 360.404 242.046C361.95 239.219 362.723 235.45 362.723 230.739V117.666C362.723 108.243 361.273 101.53 358.374 97.525C355.668 93.5204 350.932 91.5181 344.167 91.5181C339.721 91.5181 335.275 92.9315 330.83 95.7583C326.384 98.3495 321.745 102.236 316.913 107.419V231.092C316.913 240.279 320.295 246.051 327.061 248.406L329.67 249.466V253H261.534Z" fill="url(#paint2_linear_1164_141)"/>
<path d="M572.956 253C558.266 253 545.509 249.349 534.684 242.046C523.86 234.508 515.452 223.907 509.46 210.244C503.661 196.581 500.761 180.562 500.761 162.188C500.761 143.814 503.854 127.913 510.039 114.486C516.418 101.058 525.02 90.6936 535.844 83.391C546.862 76.0884 559.233 72.4371 572.956 72.4371C586.68 72.4371 598.954 76.0884 609.779 83.391C620.603 90.458 629.108 100.705 635.293 114.132C641.672 127.56 644.861 143.578 644.861 162.188C644.861 180.798 641.865 196.934 635.873 210.597C630.074 224.025 621.763 234.508 610.938 242.046C600.307 249.349 587.647 253 572.956 253ZM572.956 245.933C579.722 245.933 585.134 243.577 589.193 238.866C593.252 234.155 596.151 225.791 597.891 213.777C599.824 201.764 600.791 184.803 600.791 162.895C600.791 140.751 599.824 123.673 597.891 111.659C596.151 99.6449 593.252 91.2825 589.193 86.5712C585.134 81.8598 579.722 79.5041 572.956 79.5041C566.191 79.5041 560.682 81.8598 556.43 86.5712C552.371 91.2825 549.375 99.6449 547.442 111.659C545.702 123.673 544.832 140.751 544.832 162.895C544.832 184.803 545.702 201.764 547.442 213.777C549.375 225.791 552.371 234.155 556.43 238.866C560.682 243.577 566.191 245.933 572.956 245.933Z" fill="url(#paint3_linear_1164_141)"/>
<path d="M643.099 253V249.466L647.158 248.053C653.923 245.697 657.306 239.926 657.306 230.739V114.839C657.306 109.656 656.63 105.888 655.276 103.532C653.923 100.941 651.314 99.174 647.448 98.2317L643.099 96.8183V93.2848L692.679 72.7905L695.578 76.324L697.898 97.525C704.663 90.2224 712.298 84.2155 720.803 79.5041C729.308 74.7928 737.716 72.4371 746.028 72.4371C758.785 72.4371 768.546 76.6773 775.311 85.1578C782.27 93.6382 785.749 106.594 785.749 124.026V231.092C785.749 240.279 789.422 246.051 796.767 248.406L799.376 249.466V253H730.951V249.466L734.72 248.053C741.485 245.462 744.868 239.69 744.868 230.739V112.719C744.868 97.6426 738.682 90.1047 726.312 90.1047C717.807 90.1047 708.529 95.287 698.477 105.652V231.092C698.477 240.279 701.86 246.051 708.625 248.406L711.235 249.466V253H643.099Z" fill="url(#paint4_linear_1164_141)"/>
<path d="M857.69 253C846.286 253 836.042 249.938 826.957 243.813C817.872 237.453 810.624 227.794 805.211 214.838C799.992 201.646 797.383 184.803 797.383 164.308C797.383 143.578 800.379 126.5 806.371 113.072C812.363 99.4093 820.288 89.2802 830.146 82.6843C840.004 75.8528 850.732 72.4371 862.33 72.4371C869.095 72.4371 875.57 73.2616 881.755 74.9106C887.941 76.5595 893.45 79.033 898.282 82.3309V36.3953C898.282 31.4483 897.605 27.797 896.252 25.4414C895.093 23.0857 892.483 21.4367 888.424 20.4944L882.915 19.081V15.5475L935.684 0L938.874 3.18016L937.714 52.6494V228.089C937.714 232.8 938.39 236.687 939.743 239.749C941.096 242.576 943.718 245.992 947.391 247.17L950 248.23V253H900.42L897.702 238.866C892.483 243.106 886.491 246.522 879.726 249.113C873.154 251.704 865.809 253 857.69 253ZM874.507 239.926C882.625 239.926 890.067 236.981 896.832 231.092V90.8114C889.68 85.1578 882.335 82.3309 874.797 82.3309C865.519 82.3309 857.594 88.9267 851.022 102.119C844.45 115.075 841.164 135.569 841.164 163.601C841.164 191.634 844.257 211.422 850.442 222.965C856.627 234.272 864.649 239.926 874.507 239.926Z" fill="url(#paint5_linear_1164_141)"/>
</g>
<defs>
<filter id="filter0_d_1164_141" x="0" y="0" width="954" height="261" filterUnits="userSpaceOnUse" color-interpolation-filters="sRGB">
<feFlood flood-opacity="0" result="BackgroundImageFix"/>
<feColorMatrix in="SourceAlpha" type="matrix" values="0 0 0 0 0 0 0 0 0 0 0 0 0 0 0 0 0 0 127 0" result="hardAlpha"/>
<feOffset dy="4"/>
<feGaussianBlur stdDeviation="2"/>
<feComposite in2="hardAlpha" operator="out"/>
<feColorMatrix type="matrix" values="0 0 0 0 0 0 0 0 0 0 0 0 0 0 0 0 0 0 0.25 0"/>
<feBlend mode="normal" in2="BackgroundImageFix" result="effect1_dropShadow_1164_141"/>
<feBlend mode="normal" in="SourceGraphic" in2="effect1_dropShadow_1164_141" result="shape"/>
</filter>
<linearGradient id="paint0_linear_1164_141" x1="4" y1="126.5" x2="950" y2="126.5" gradientUnits="userSpaceOnUse">
<stop stop-color="#80B8F9"/>
<stop offset="0.509615" stop-color="#FE7EC4"/>
<stop offset="1" stop-color="#FFFFC2"/>
</linearGradient>
<linearGradient id="paint1_linear_1164_141" x1="4" y1="126.5" x2="950" y2="126.5" gradientUnits="userSpaceOnUse">
<stop stop-color="#80B8F9"/>
<stop offset="0.509615" stop-color="#FE7EC4"/>
<stop offset="1" stop-color="#FFFFC2"/>
</linearGradient>
<linearGradient id="paint2_linear_1164_141" x1="4" y1="126.5" x2="950" y2="126.5" gradientUnits="userSpaceOnUse">
<stop stop-color="#80B8F9"/>
<stop offset="0.509615" stop-color="#FE7EC4"/>
<stop offset="1" stop-color="#FFFFC2"/>
</linearGradient>
<linearGradient id="paint3_linear_1164_141" x1="4" y1="126.5" x2="950" y2="126.5" gradientUnits="userSpaceOnUse">
<stop stop-color="#80B8F9"/>
<stop offset="0.509615" stop-color="#FE7EC4"/>
<stop offset="1" stop-color="#FFFFC2"/>
</linearGradient>
<linearGradient id="paint4_linear_1164_141" x1="4" y1="126.5" x2="950" y2="126.5" gradientUnits="userSpaceOnUse">
<stop stop-color="#80B8F9"/>
<stop offset="0.509615" stop-color="#FE7EC4"/>
<stop offset="1" stop-color="#FFFFC2"/>
</linearGradient>
<linearGradient id="paint5_linear_1164_141" x1="4" y1="126.5" x2="950" y2="126.5" gradientUnits="userSpaceOnUse">
<stop stop-color="#80B8F9"/>
<stop offset="0.509615" stop-color="#FE7EC4"/>
<stop offset="1" stop-color="#FFFFC2"/>
</linearGradient>
</defs>
</svg>
